# xmcd CD database file
#
# Track frame offsets:
#	150
#	15503
#	29047
#	43779
#	60738
#	81082
#	91568
#	105732
#	117065
#	132955
#	148779
#	164340
#	187185
#	201976
#	220157
#	239777
#	253605
#	273711
#	288577
#	310257
#
# Disc length: 4430 seconds
#
# Revision: 0
# Processed by: cddbd v1.5.2PL0 Copyright (c) Steve Scherf et al.
# Submitted via: CDex 1.70beta1
#
DISCID=32114c14
DTITLE=Acker Bilk - Vintage Acker Bilk CD 02
DYEAR=1900
DGENRE=Jazz
TTITLE0=Dippermouth Blues
TTITLE1=St. Louis Blues
TTITLE2=Louisian-I-Ay
TTITLE3=High Society
TTITLE4=Snag It
TTITLE5=Sing On
TTITLE6=Baby Doll
TTITLE7=Redwing
TTITLE8=Swing Low Sweet Chariot
TTITLE9=Bei Mir Bist Du Schoen
TTITLE10=We Shall Walk Through The Streets Of The City
TTITLE11=Postman's Lament
TTITLE12=Savoy Blues
TTITLE13=Shine
TTITLE14=I've Found A New Baby
TTITLE15=Sweetie Dear
TTITLE16=Climax Rag
TTITLE17=Delia Gone
TTITLE18=Audientor March
TTITLE19=Carry Me Back To Old Virginny
EXTD=
EXTT0=
EXTT1=
EXTT2=
EXTT3=
EXTT4=
EXTT5=
EXTT6=
EXTT7=
EXTT8=
EXTT9=
EXTT10=
EXTT11=
EXTT12=
EXTT13=
EXTT14=
EXTT15=
EXTT16=
EXTT17=
EXTT18=
EXTT19=
PLAYORDER=
